#N canvas 511 296 450 300 10;
#X obj 242 51 bng 26 250 50 0 empty empty empty 17 7 0 10 -262144 -1
-1;
#X obj 175 121 f;
#X msg 274 87 0;
#X obj 242 170 f;
#X msg 274 138 1;
#X floatatom 174 190 5 0 0 0 - - -, f 5;
#X obj 174 227 +;
#X obj 175 148 t f b;
#X text 121 191 fib seq;
#X connect 0 0 1 0;
#X connect 1 0 7 0;
#X connect 2 0 1 1;
#X connect 2 0 4 0;
#X connect 3 0 1 1;
#X connect 3 0 6 1;
#X connect 4 0 3 1;
#X connect 5 0 6 0;
#X connect 6 0 3 1;
#X connect 7 0 5 0;
#X connect 7 1 3 0;
