#N canvas 216 0 958 899.031 10;
#X obj 48 118 line;
#X floatatom 48 145 5 0 0 0 - - -, f 5;
#X obj 47 278 tabwrite array1;
#N canvas 0 0 450 300 (subpatch) 0;
#X array array1 100 float 0 black black;
#X coords 0 1 99 0 200 140 1;
#X restore 387 113 graph;
#X obj 67 17 bng 15 250 50 0 empty empty empty 17 7 0 10 -262144 -1
-1;
#X msg 48 91 0 \, 100 10000;
#X obj 258 47 / 100;
#X obj 258 80 * 6.28319;
#X obj 258 109 cos;
#X obj 242 149 -;
#X obj 242 179 * 0.5;
#X msg 207 110 1;
#X obj 137 165 t b f;
#N canvas 908 433 450 392 hann 0;
#X obj 171 37 inlet~;
#X obj 253 45 inlet;
#X obj 155 320 outlet~;
#X obj 268 156 /~;
#X obj 270 184 cos~;
#X obj 227 270 *~ 0.5;
#X obj 187 177 sig~ 1;
#X obj 232 227 -~;
#X connect 0 0 3 0;
#X connect 1 0 3 1;
#X connect 3 0 4 0;
#X connect 4 0 7 1;
#X connect 5 0 2 0;
#X connect 6 0 7 0;
#X connect 7 0 5 0;
#X restore 178 481 pd hann;
#X obj 108 408 line~;
#X msg 52 505 start;
#X obj 108 320 bng 15 250 50 0 empty empty empty 17 7 0 10 -262144
-1 -1;
#X msg 111 473 stop;
#N canvas 0 0 450 300 (subpatch) 0;
#X array buff 4410 float 0 black black;
#X coords 0 1 4409 0 200 140 1;
#X restore 314 443 graph;
#X obj 178 524 tabwrite~ buff;
#X obj 111 450 bng 15 250 50 0 empty empty empty 17 7 0 10 -262144
-1 -1;
#X msg 229 399 1;
#X obj 243 458 cos~;
#X obj 141 346 del 100;
#X msg 106 372 0 \, 1 100;
#X connect 0 0 1 0;
#X connect 1 0 2 1;
#X connect 1 0 12 0;
#X connect 4 0 5 0;
#X connect 5 0 0 0;
#X connect 6 0 7 0;
#X connect 7 0 8 0;
#X connect 8 0 9 1;
#X connect 9 0 10 0;
#X connect 10 0 2 0;
#X connect 11 0 9 0;
#X connect 12 0 11 0;
#X connect 12 1 6 0;
#X connect 13 0 19 0;
#X connect 14 0 13 0;
#X connect 14 0 22 0;
#X connect 15 0 19 0;
#X connect 16 0 24 0;
#X connect 16 0 23 0;
#X connect 17 0 19 0;
#X connect 20 0 17 0;
#X connect 21 0 13 1;
#X connect 23 0 20 0;
#X connect 24 0 14 0;
#X connect 24 0 15 0;
